<mxfile host="app.diagrams.net" modified="2023-04-28T01:05:32.396Z" agent="Mozilla/5.0 (Macintosh; Intel Mac OS X 10_15_7) AppleWebKit/537.36 (KHTML, like Gecko) Chrome/112.0.0.0 Safari/537.36" etag="Vn_1XgVx8AGHGkJS2Kd-" version="21.2.3" type="device">
  <diagram id="UxJHGckpZkvYywocLkhY" name="Page-1">
    <mxGraphModel dx="1194" dy="648" grid="1" gridSize="10" guides="1" tooltips="1" connect="1" arrows="1" fold="1" page="1" pageScale="1" pageWidth="827" pageHeight="1169" math="0" shadow="0">
      <root>
        <mxCell id="0" />
        <mxCell id="1" parent="0" />
        <mxCell id="okE7Q3x3RyowNFd4Rjw1-1" value=":Trader" style="shape=umlLifeline;perimeter=lifelinePerimeter;whiteSpace=wrap;html=1;container=1;collapsible=0;recursiveResize=0;outlineConnect=0;rounded=1;shadow=0;comic=0;labelBackgroundColor=none;strokeWidth=1;fontFamily=Helvetica;fontSize=12;align=center;" parent="1" vertex="1">
          <mxGeometry x="100" y="80" width="100" height="920" as="geometry" />
        </mxCell>
        <mxCell id="okE7Q3x3RyowNFd4Rjw1-14" value="" style="html=1;points=[];perimeter=orthogonalPerimeter;rounded=0;shadow=0;comic=0;labelBackgroundColor=none;strokeWidth=1;fontFamily=Helvetica;fontSize=12;align=center;" parent="okE7Q3x3RyowNFd4Rjw1-1" vertex="1">
          <mxGeometry x="45" y="70" width="10" height="620" as="geometry" />
        </mxCell>
        <mxCell id="okE7Q3x3RyowNFd4Rjw1-16" value="" style="html=1;verticalAlign=bottom;endArrow=block;labelBackgroundColor=none;fontFamily=Helvetica;fontSize=12;rounded=0;edgeStyle=elbowEdgeStyle;elbow=vertical;" parent="okE7Q3x3RyowNFd4Rjw1-1" edge="1">
          <mxGeometry x="0.067" relative="1" as="geometry">
            <mxPoint x="55" y="240" as="sourcePoint" />
            <mxPoint x="175" y="240" as="targetPoint" />
            <mxPoint as="offset" />
            <Array as="points">
              <mxPoint x="160" y="240" />
            </Array>
          </mxGeometry>
        </mxCell>
        <mxCell id="okE7Q3x3RyowNFd4Rjw1-3" value=":TradeableWeapon" style="shape=umlLifeline;perimeter=lifelinePerimeter;whiteSpace=wrap;html=1;container=1;collapsible=0;recursiveResize=0;outlineConnect=0;rounded=1;shadow=0;comic=0;labelBackgroundColor=none;strokeWidth=1;fontFamily=Helvetica;fontSize=12;align=center;" parent="1" vertex="1">
          <mxGeometry x="840" y="230" width="119" height="930" as="geometry" />
        </mxCell>
        <mxCell id="okE7Q3x3RyowNFd4Rjw1-4" value="" style="html=1;points=[];perimeter=orthogonalPerimeter;rounded=0;shadow=0;comic=0;labelBackgroundColor=none;strokeWidth=1;fontFamily=Helvetica;fontSize=12;align=center;" parent="okE7Q3x3RyowNFd4Rjw1-3" vertex="1">
          <mxGeometry x="54.5" y="135" width="10" height="60" as="geometry" />
        </mxCell>
        <mxCell id="okE7Q3x3RyowNFd4Rjw1-35" value="" style="html=1;points=[];perimeter=orthogonalPerimeter;rounded=0;shadow=0;comic=0;labelBackgroundColor=none;strokeWidth=1;fontFamily=Helvetica;fontSize=12;align=center;" parent="okE7Q3x3RyowNFd4Rjw1-3" vertex="1">
          <mxGeometry x="54.5" y="310" width="10" height="60" as="geometry" />
        </mxCell>
        <mxCell id="okE7Q3x3RyowNFd4Rjw1-5" value=":PurchaseWeapon&lt;br&gt;Action" style="shape=umlLifeline;perimeter=lifelinePerimeter;whiteSpace=wrap;html=1;container=1;collapsible=0;recursiveResize=0;outlineConnect=0;rounded=1;shadow=0;comic=0;labelBackgroundColor=none;strokeWidth=1;fontFamily=Helvetica;fontSize=12;align=center;" parent="1" vertex="1">
          <mxGeometry x="280" y="300" width="100" height="150" as="geometry" />
        </mxCell>
        <mxCell id="okE7Q3x3RyowNFd4Rjw1-6" value="" style="html=1;points=[];perimeter=orthogonalPerimeter;rounded=0;shadow=0;comic=0;labelBackgroundColor=none;strokeWidth=1;fontFamily=Helvetica;fontSize=12;align=center;" parent="okE7Q3x3RyowNFd4Rjw1-5" vertex="1">
          <mxGeometry x="45" y="70" width="10" height="70" as="geometry" />
        </mxCell>
        <mxCell id="okE7Q3x3RyowNFd4Rjw1-7" value=":RuneManager" style="shape=umlLifeline;perimeter=lifelinePerimeter;whiteSpace=wrap;html=1;container=1;collapsible=0;recursiveResize=0;outlineConnect=0;rounded=1;shadow=0;comic=0;labelBackgroundColor=none;strokeWidth=1;fontFamily=Helvetica;fontSize=12;align=center;" parent="1" vertex="1">
          <mxGeometry x="690" y="80" width="100" height="920" as="geometry" />
        </mxCell>
        <mxCell id="okE7Q3x3RyowNFd4Rjw1-8" value="" style="html=1;points=[];perimeter=orthogonalPerimeter;rounded=0;shadow=0;comic=0;labelBackgroundColor=none;strokeWidth=1;fontFamily=Helvetica;fontSize=12;align=center;" parent="okE7Q3x3RyowNFd4Rjw1-7" vertex="1">
          <mxGeometry x="45" y="70" width="10" height="510" as="geometry" />
        </mxCell>
        <mxCell id="okE7Q3x3RyowNFd4Rjw1-12" value="&lt;meta charset=&quot;utf-8&quot;&gt;&lt;span style=&quot;color: rgb(0, 0, 0); font-family: Helvetica; font-size: 12px; font-style: normal; font-variant-ligatures: normal; font-variant-caps: normal; font-weight: 400; letter-spacing: normal; orphans: 2; text-align: center; text-indent: 0px; text-transform: none; widows: 2; word-spacing: 0px; -webkit-text-stroke-width: 0px; background-color: rgb(251, 251, 251); text-decoration-thickness: initial; text-decoration-style: initial; text-decoration-color: initial; float: none; display: inline !important;&quot;&gt;&amp;lt;&amp;lt;creates&amp;gt;&amp;gt;&lt;/span&gt;" style="text;whiteSpace=wrap;html=1;" parent="1" vertex="1">
          <mxGeometry x="700" y="220" width="100" height="40" as="geometry" />
        </mxCell>
        <mxCell id="okE7Q3x3RyowNFd4Rjw1-18" value=":Player" style="shape=umlLifeline;perimeter=lifelinePerimeter;whiteSpace=wrap;html=1;container=1;collapsible=0;recursiveResize=0;outlineConnect=0;rounded=1;shadow=0;comic=0;labelBackgroundColor=none;strokeWidth=1;fontFamily=Helvetica;fontSize=12;align=center;" parent="1" vertex="1">
          <mxGeometry x="380" y="80" width="100" height="920" as="geometry" />
        </mxCell>
        <mxCell id="okE7Q3x3RyowNFd4Rjw1-19" value="" style="html=1;points=[];perimeter=orthogonalPerimeter;rounded=0;shadow=0;comic=0;labelBackgroundColor=none;strokeWidth=1;fontFamily=Helvetica;fontSize=12;align=center;" parent="okE7Q3x3RyowNFd4Rjw1-18" vertex="1">
          <mxGeometry x="45" y="70" width="10" height="510" as="geometry" />
        </mxCell>
        <mxCell id="okE7Q3x3RyowNFd4Rjw1-41" value="" style="html=1;verticalAlign=bottom;endArrow=block;labelBackgroundColor=none;fontFamily=Helvetica;fontSize=12;rounded=0;edgeStyle=elbowEdgeStyle;elbow=vertical;" parent="okE7Q3x3RyowNFd4Rjw1-18" target="okE7Q3x3RyowNFd4Rjw1-7" edge="1">
          <mxGeometry x="0.067" relative="1" as="geometry">
            <mxPoint x="-40" y="360" as="sourcePoint" />
            <mxPoint x="25" y="360" as="targetPoint" />
            <mxPoint as="offset" />
            <Array as="points">
              <mxPoint x="10" y="360" />
            </Array>
          </mxGeometry>
        </mxCell>
        <mxCell id="okE7Q3x3RyowNFd4Rjw1-9" value="" style="html=1;verticalAlign=bottom;endArrow=block;labelBackgroundColor=none;fontFamily=Helvetica;fontSize=12;edgeStyle=elbowEdgeStyle;elbow=vertical;" parent="1" edge="1">
          <mxGeometry relative="1" as="geometry">
            <mxPoint x="155" y="250" as="sourcePoint" />
            <mxPoint as="offset" />
            <mxPoint x="840" y="250" as="targetPoint" />
          </mxGeometry>
        </mxCell>
        <mxCell id="okE7Q3x3RyowNFd4Rjw1-21" value="" style="html=1;verticalAlign=bottom;endArrow=block;labelBackgroundColor=none;fontFamily=Helvetica;fontSize=12;rounded=0;edgeStyle=elbowEdgeStyle;elbow=vertical;exitX=1.5;exitY=0.004;exitDx=0;exitDy=0;exitPerimeter=0;" parent="1" source="okE7Q3x3RyowNFd4Rjw1-19" target="okE7Q3x3RyowNFd4Rjw1-7" edge="1">
          <mxGeometry x="0.067" relative="1" as="geometry">
            <mxPoint x="470" y="150" as="sourcePoint" />
            <mxPoint x="590" y="150" as="targetPoint" />
            <mxPoint as="offset" />
            <Array as="points">
              <mxPoint x="630" y="150" />
              <mxPoint x="575" y="150" />
            </Array>
          </mxGeometry>
        </mxCell>
        <mxCell id="okE7Q3x3RyowNFd4Rjw1-22" value="getInstance()" style="text;html=1;align=center;verticalAlign=middle;resizable=0;points=[];autosize=1;strokeColor=none;fillColor=none;" parent="1" vertex="1">
          <mxGeometry x="505" y="125" width="90" height="30" as="geometry" />
        </mxCell>
        <mxCell id="okE7Q3x3RyowNFd4Rjw1-23" value="&amp;lt;&amp;lt;creates&amp;gt;&amp;gt;" style="text;html=1;align=center;verticalAlign=middle;resizable=0;points=[];autosize=1;strokeColor=none;fillColor=none;" parent="1" vertex="1">
          <mxGeometry x="170" y="290" width="90" height="30" as="geometry" />
        </mxCell>
        <mxCell id="okE7Q3x3RyowNFd4Rjw1-28" value="getPurchasePrice()" style="text;html=1;align=center;verticalAlign=middle;resizable=0;points=[];autosize=1;strokeColor=none;fillColor=none;" parent="1" vertex="1">
          <mxGeometry x="750" y="340" width="130" height="30" as="geometry" />
        </mxCell>
        <mxCell id="okE7Q3x3RyowNFd4Rjw1-29" value="Weapon purchase price" style="html=1;verticalAlign=bottom;endArrow=open;dashed=1;endSize=8;labelBackgroundColor=none;fontFamily=Helvetica;fontSize=12;elbow=vertical;" parent="1" edge="1">
          <mxGeometry x="-0.75" relative="1" as="geometry">
            <mxPoint x="330" y="400" as="targetPoint" />
            <mxPoint x="890" y="400" as="sourcePoint" />
            <mxPoint as="offset" />
            <Array as="points">
              <mxPoint x="885" y="400" />
            </Array>
          </mxGeometry>
        </mxCell>
        <mxCell id="okE7Q3x3RyowNFd4Rjw1-31" value=":SellWeapon&lt;br&gt;Action" style="shape=umlLifeline;perimeter=lifelinePerimeter;whiteSpace=wrap;html=1;container=1;collapsible=0;recursiveResize=0;outlineConnect=0;rounded=1;shadow=0;comic=0;labelBackgroundColor=none;strokeWidth=1;fontFamily=Helvetica;fontSize=12;align=center;" parent="1" vertex="1">
          <mxGeometry x="280" y="470" width="100" height="180" as="geometry" />
        </mxCell>
        <mxCell id="okE7Q3x3RyowNFd4Rjw1-32" value="" style="html=1;points=[];perimeter=orthogonalPerimeter;rounded=0;shadow=0;comic=0;labelBackgroundColor=none;strokeWidth=1;fontFamily=Helvetica;fontSize=12;align=center;" parent="okE7Q3x3RyowNFd4Rjw1-31" vertex="1">
          <mxGeometry x="45" y="70" width="10" height="70" as="geometry" />
        </mxCell>
        <mxCell id="okE7Q3x3RyowNFd4Rjw1-33" value="" style="html=1;verticalAlign=bottom;endArrow=block;labelBackgroundColor=none;fontFamily=Helvetica;fontSize=12;rounded=0;edgeStyle=elbowEdgeStyle;elbow=vertical;" parent="1" edge="1">
          <mxGeometry x="0.067" relative="1" as="geometry">
            <mxPoint x="160" y="480" as="sourcePoint" />
            <mxPoint x="280" y="480" as="targetPoint" />
            <mxPoint as="offset" />
            <Array as="points">
              <mxPoint x="265" y="480" />
            </Array>
          </mxGeometry>
        </mxCell>
        <mxCell id="okE7Q3x3RyowNFd4Rjw1-34" value="&amp;lt;&amp;lt;creates&amp;gt;&amp;gt;" style="text;html=1;align=center;verticalAlign=middle;resizable=0;points=[];autosize=1;strokeColor=none;fillColor=none;" parent="1" vertex="1">
          <mxGeometry x="170" y="450" width="90" height="30" as="geometry" />
        </mxCell>
        <mxCell id="okE7Q3x3RyowNFd4Rjw1-36" value="" style="html=1;verticalAlign=bottom;endArrow=block;labelBackgroundColor=none;fontFamily=Helvetica;fontSize=12;edgeStyle=elbowEdgeStyle;elbow=vertical;" parent="1" edge="1">
          <mxGeometry relative="1" as="geometry">
            <mxPoint x="330" y="539.5" as="sourcePoint" />
            <mxPoint as="offset" />
            <mxPoint x="900" y="539.5" as="targetPoint" />
          </mxGeometry>
        </mxCell>
        <mxCell id="okE7Q3x3RyowNFd4Rjw1-39" value="getSellPrice()" style="text;html=1;align=center;verticalAlign=middle;resizable=0;points=[];autosize=1;strokeColor=none;fillColor=none;" parent="1" vertex="1">
          <mxGeometry x="780" y="510" width="100" height="30" as="geometry" />
        </mxCell>
        <mxCell id="okE7Q3x3RyowNFd4Rjw1-42" value="changeRunes()" style="text;html=1;align=center;verticalAlign=middle;resizable=0;points=[];autosize=1;strokeColor=none;fillColor=none;" parent="1" vertex="1">
          <mxGeometry x="495" y="415" width="110" height="30" as="geometry" />
        </mxCell>
        <mxCell id="okE7Q3x3RyowNFd4Rjw1-43" value="" style="html=1;verticalAlign=bottom;endArrow=block;labelBackgroundColor=none;fontFamily=Helvetica;fontSize=12;rounded=0;edgeStyle=elbowEdgeStyle;elbow=vertical;" parent="1" target="okE7Q3x3RyowNFd4Rjw1-7" edge="1">
          <mxGeometry x="0.067" relative="1" as="geometry">
            <mxPoint x="335" y="610" as="sourcePoint" />
            <mxPoint x="650" y="610" as="targetPoint" />
            <mxPoint as="offset" />
            <Array as="points">
              <mxPoint x="440" y="610" />
            </Array>
          </mxGeometry>
        </mxCell>
        <mxCell id="okE7Q3x3RyowNFd4Rjw1-44" value="changeRunes()" style="text;html=1;align=center;verticalAlign=middle;resizable=0;points=[];autosize=1;strokeColor=none;fillColor=none;" parent="1" vertex="1">
          <mxGeometry x="495" y="580" width="110" height="30" as="geometry" />
        </mxCell>
        <mxCell id="okE7Q3x3RyowNFd4Rjw1-45" value=":DoNothingAction" style="shape=umlLifeline;perimeter=lifelinePerimeter;whiteSpace=wrap;html=1;container=1;collapsible=0;recursiveResize=0;outlineConnect=0;rounded=1;shadow=0;comic=0;labelBackgroundColor=none;strokeWidth=1;fontFamily=Helvetica;fontSize=12;align=center;" parent="1" vertex="1">
          <mxGeometry x="727" y="680" width="100" height="190" as="geometry" />
        </mxCell>
        <mxCell id="okE7Q3x3RyowNFd4Rjw1-46" value="" style="html=1;points=[];perimeter=orthogonalPerimeter;rounded=0;shadow=0;comic=0;labelBackgroundColor=none;strokeWidth=1;fontFamily=Helvetica;fontSize=12;align=center;" parent="okE7Q3x3RyowNFd4Rjw1-45" vertex="1">
          <mxGeometry x="45" y="570" width="10" height="30" as="geometry" />
        </mxCell>
        <mxCell id="okE7Q3x3RyowNFd4Rjw1-48" value="&amp;lt;&amp;lt;creates&amp;gt;&amp;gt;" style="html=1;verticalAlign=bottom;endArrow=block;labelBackgroundColor=none;fontFamily=Helvetica;fontSize=12;rounded=0;edgeStyle=elbowEdgeStyle;elbow=vertical;" parent="1" edge="1">
          <mxGeometry relative="1" as="geometry">
            <mxPoint x="160" y="700" as="sourcePoint" />
            <mxPoint x="720" y="700" as="targetPoint" />
            <mxPoint as="offset" />
          </mxGeometry>
        </mxCell>
        <mxCell id="okE7Q3x3RyowNFd4Rjw1-27" value="" style="html=1;verticalAlign=bottom;endArrow=block;labelBackgroundColor=none;fontFamily=Helvetica;fontSize=12;edgeStyle=elbowEdgeStyle;elbow=vertical;" parent="1" edge="1">
          <mxGeometry relative="1" as="geometry">
            <mxPoint x="330" y="370" as="sourcePoint" />
            <mxPoint as="offset" />
            <mxPoint x="900" y="370" as="targetPoint" />
          </mxGeometry>
        </mxCell>
        <mxCell id="okE7Q3x3RyowNFd4Rjw1-38" value="Weapon selling price" style="html=1;verticalAlign=bottom;endArrow=open;dashed=1;endSize=8;labelBackgroundColor=none;fontFamily=Helvetica;fontSize=12;elbow=vertical;" parent="1" edge="1">
          <mxGeometry x="-0.75" relative="1" as="geometry">
            <mxPoint x="330" y="570" as="targetPoint" />
            <mxPoint x="890" y="570" as="sourcePoint" />
            <mxPoint as="offset" />
            <Array as="points">
              <mxPoint x="885" y="570" />
            </Array>
          </mxGeometry>
        </mxCell>
        <mxCell id="okE7Q3x3RyowNFd4Rjw1-52" value="" style="html=1;verticalAlign=bottom;endArrow=block;labelBackgroundColor=none;fontFamily=Helvetica;fontSize=12;rounded=0;edgeStyle=elbowEdgeStyle;elbow=vertical;" parent="1" edge="1">
          <mxGeometry x="0.067" relative="1" as="geometry">
            <mxPoint x="430" y="200" as="sourcePoint" />
            <mxPoint x="540" y="200" as="targetPoint" />
            <mxPoint as="offset" />
            <Array as="points">
              <mxPoint x="480" y="200" />
              <mxPoint x="545" y="200" />
            </Array>
          </mxGeometry>
        </mxCell>
        <mxCell id="okE7Q3x3RyowNFd4Rjw1-53" value=":DeathAction" style="shape=umlLifeline;perimeter=lifelinePerimeter;whiteSpace=wrap;html=1;container=1;collapsible=0;recursiveResize=0;outlineConnect=0;rounded=1;shadow=0;comic=0;labelBackgroundColor=none;strokeWidth=1;fontFamily=Helvetica;fontSize=12;align=center;" parent="1" vertex="1">
          <mxGeometry x="540" y="180" width="100" height="180" as="geometry" />
        </mxCell>
        <mxCell id="okE7Q3x3RyowNFd4Rjw1-54" value="" style="html=1;points=[];perimeter=orthogonalPerimeter;rounded=0;shadow=0;comic=0;labelBackgroundColor=none;strokeWidth=1;fontFamily=Helvetica;fontSize=12;align=center;" parent="okE7Q3x3RyowNFd4Rjw1-53" vertex="1">
          <mxGeometry x="45" y="110" width="10" height="50" as="geometry" />
        </mxCell>
        <mxCell id="okE7Q3x3RyowNFd4Rjw1-55" value="" style="html=1;verticalAlign=bottom;endArrow=block;labelBackgroundColor=none;fontFamily=Helvetica;fontSize=12;rounded=0;edgeStyle=elbowEdgeStyle;elbow=vertical;" parent="1" target="okE7Q3x3RyowNFd4Rjw1-7" edge="1">
          <mxGeometry x="0.067" relative="1" as="geometry">
            <mxPoint x="590" y="269.5" as="sourcePoint" />
            <mxPoint x="700" y="269.5" as="targetPoint" />
            <mxPoint as="offset" />
            <Array as="points">
              <mxPoint x="650" y="290" />
              <mxPoint x="640" y="269.5" />
              <mxPoint x="705" y="269.5" />
            </Array>
          </mxGeometry>
        </mxCell>
        <mxCell id="okE7Q3x3RyowNFd4Rjw1-58" value="changeRunes()" style="text;html=1;align=center;verticalAlign=middle;resizable=0;points=[];autosize=1;strokeColor=none;fillColor=none;" parent="1" vertex="1">
          <mxGeometry x="605" y="260" width="110" height="30" as="geometry" />
        </mxCell>
      </root>
    </mxGraphModel>
  </diagram>
</mxfile>
